<svg width="141" height="50" viewBox="0 0 141 50" fill="none" xmlns="http://www.w3.org/2000/svg">
<rect width="50" height="50" rx="25" fill="#4397A4"/>
<rect width="50" height="50" rx="25" fill="url(#paint0_linear_1_205)" fill-opacity="0.2"/>
<path d="M72.2313 16.864C73.7193 16.864 74.9433 17.008 75.9033 17.296C76.8633 17.568 77.5753 18.024 78.0393 18.664C78.5033 19.288 78.7353 20.136 78.7353 21.208C78.7353 21.848 78.6233 22.432 78.3993 22.96C78.1753 23.488 77.8713 23.92 77.4873 24.256C77.1193 24.592 76.7033 24.808 76.2393 24.904V25.024C76.7193 25.136 77.1753 25.336 77.6073 25.624C78.0553 25.912 78.4153 26.328 78.6873 26.872C78.9593 27.416 79.0953 28.136 79.0953 29.032C79.0953 30.072 78.8473 30.968 78.3513 31.72C77.8713 32.456 77.1833 33.024 76.2873 33.424C75.3913 33.808 74.3193 34 73.0713 34H66.9273V16.864H72.2313ZM72.4473 23.656C73.3113 23.656 73.9113 23.488 74.2473 23.152C74.5833 22.816 74.7513 22.328 74.7513 21.688C74.7513 21.032 74.5513 20.56 74.1513 20.272C73.7673 19.984 73.1593 19.84 72.3273 19.84H70.8153V23.656H72.4473ZM70.8153 26.536V31H72.6873C73.5833 31 74.2073 30.792 74.5593 30.376C74.9113 29.944 75.0873 29.376 75.0873 28.672C75.0873 28.24 75.0073 27.864 74.8473 27.544C74.7033 27.224 74.4473 26.976 74.0793 26.8C73.7273 26.624 73.2313 26.536 72.5913 26.536H70.8153ZM93.5628 20.896V34H90.6588L90.1548 32.32H89.9388C89.6828 32.768 89.3548 33.136 88.9548 33.424C88.5708 33.696 88.1388 33.896 87.6588 34.024C87.1788 34.168 86.6828 34.24 86.1708 34.24C85.3228 34.24 84.5708 34.072 83.9148 33.736C83.2588 33.4 82.7388 32.88 82.3548 32.176C81.9868 31.472 81.8027 30.56 81.8027 29.44V20.896H85.6428V28.552C85.6428 29.48 85.7788 30.184 86.0508 30.664C86.3228 31.144 86.7628 31.384 87.3708 31.384C87.9948 31.384 88.4748 31.216 88.8108 30.88C89.1468 30.544 89.3788 30.056 89.5068 29.416C89.6508 28.776 89.7228 27.992 89.7228 27.064V20.896H93.5628ZM100.667 20.896V34H96.8273V20.896H100.667ZM98.7713 15.76C99.3313 15.76 99.8113 15.888 100.211 16.144C100.611 16.384 100.811 16.84 100.811 17.512C100.811 18.168 100.611 18.624 100.211 18.88C99.8113 19.136 99.3313 19.264 98.7713 19.264C98.1953 19.264 97.7073 19.136 97.3073 18.88C96.9073 18.624 96.7073 18.168 96.7073 17.512C96.7073 16.84 96.9073 16.384 97.3073 16.144C97.7073 15.888 98.1953 15.76 98.7713 15.76ZM107.769 34H103.929V15.76H107.769V34ZM114.918 34.24C113.59 34.24 112.502 33.672 111.654 32.536C110.806 31.384 110.382 29.696 110.382 27.472C110.382 25.232 110.814 23.536 111.678 22.384C112.542 21.232 113.662 20.656 115.038 20.656C115.614 20.656 116.11 20.744 116.526 20.92C116.958 21.08 117.326 21.304 117.63 21.592C117.95 21.88 118.222 22.208 118.446 22.576H118.542C118.494 22.32 118.446 21.952 118.398 21.472C118.35 20.976 118.326 20.472 118.326 19.96V15.76H122.166V34H119.262L118.47 32.296H118.326C118.118 32.648 117.862 32.976 117.558 33.28C117.254 33.568 116.886 33.8 116.454 33.976C116.022 34.152 115.51 34.24 114.918 34.24ZM116.382 31.384C117.182 31.384 117.75 31.096 118.086 30.52C118.438 29.928 118.614 29.048 118.614 27.88V27.496C118.614 26.216 118.454 25.24 118.134 24.568C117.814 23.896 117.214 23.56 116.334 23.56C115.71 23.56 115.206 23.904 114.822 24.592C114.454 25.264 114.27 26.24 114.27 27.52C114.27 28.8 114.454 29.768 114.822 30.424C115.206 31.064 115.726 31.384 116.382 31.384ZM129.261 20.896V34H125.421V20.896H129.261ZM127.365 15.76C127.925 15.76 128.405 15.888 128.805 16.144C129.205 16.384 129.405 16.84 129.405 17.512C129.405 18.168 129.205 18.624 128.805 18.88C128.405 19.136 127.925 19.264 127.365 19.264C126.789 19.264 126.301 19.136 125.901 18.88C125.501 18.624 125.301 18.168 125.301 17.512C125.301 16.84 125.501 16.384 125.901 16.144C126.301 15.888 126.789 15.76 127.365 15.76ZM138.163 31.384C138.547 31.384 138.899 31.344 139.219 31.264C139.555 31.184 139.899 31.088 140.251 30.976V33.64C139.851 33.8 139.379 33.936 138.835 34.048C138.307 34.176 137.683 34.24 136.963 34.24C136.195 34.24 135.507 34.112 134.899 33.856C134.307 33.6 133.843 33.16 133.507 32.536C133.171 31.896 133.003 31.016 133.003 29.896V23.584H131.443V22.072L133.315 20.872L134.371 18.112H136.843V20.896H140.107V23.584H136.843V29.896C136.843 30.392 136.963 30.768 137.203 31.024C137.443 31.264 137.763 31.384 138.163 31.384Z" fill="#486A6F"/>
<defs>
<linearGradient id="paint0_linear_1_205" x1="2.45288e-07" y1="2.18086" x2="58.3148" y2="16.9983" gradientUnits="userSpaceOnUse">
<stop stop-color="#4397A4"/>
<stop offset="1" stop-color="#5BCCDE"/>
</linearGradient>
</defs>
</svg>
